<svg width="82" height="79" viewBox="0 0 82 79" fill="none" xmlns="http://www.w3.org/2000/svg">
<path d="M59.3484 0H59.1536C51.4036 0 44.5496 4.10096 40.6071 10.1524C36.6645 4.10096 29.8106 0 22.0605 0H21.8658C16.0496 0.0554264 10.4903 2.40396 6.39595 6.53524C2.30163 10.6665 0.00315734 16.2467 0 22.0631C0 29.2859 3.16338 39.5344 9.33171 47.9675C21.084 64.0363 40.6071 78.0949 40.6071 78.0949C40.6071 78.0949 60.1302 64.0389 71.8798 47.9675C78.0508 39.5344 81.2116 29.2859 81.2116 22.0631C81.2084 16.2471 78.9103 10.6674 74.8165 6.53615C70.7228 2.40494 65.1641 0.0561063 59.3484 0ZM56.5616 49.2038C55.679 49.2004 54.818 48.9303 54.0917 48.4287C53.3654 47.9272 52.8077 47.2178 52.4918 46.3936H47.8584C47.5533 46.3917 47.2564 46.2946 47.0092 46.1158C46.7619 45.937 46.5767 45.6855 46.4793 45.3963L45.0561 41.1083L40.5525 56.8447C40.4648 57.1477 40.2812 57.414 40.0293 57.6036C39.7773 57.7933 39.4706 57.8961 39.1552 57.8966H39.0643C38.7353 57.8807 38.4216 57.7523 38.1758 57.533C37.93 57.3137 37.7669 57.0166 37.7138 56.6915L33.0726 28.7769L29.6807 45.295C29.6029 45.6088 29.4223 45.8875 29.1676 46.0866C28.9129 46.2858 28.5989 46.3938 28.2756 46.3936H21.7489C21.5532 46.4019 21.3579 46.3705 21.1747 46.3014C20.9915 46.2322 20.8242 46.1267 20.6828 45.9912C20.5414 45.8557 20.429 45.693 20.3521 45.5128C20.2753 45.3327 20.2356 45.1389 20.2356 44.9431C20.2356 44.7473 20.2753 44.5535 20.3521 44.3733C20.429 44.1932 20.5414 44.0305 20.6828 43.895C20.8242 43.7595 20.9915 43.654 21.1747 43.5848C21.3579 43.5157 21.5532 43.4843 21.7489 43.4926H27.1328L31.9377 21.284C32.0165 20.9556 32.207 20.6649 32.4765 20.4614C32.746 20.258 33.0779 20.1544 33.4152 20.1686C33.7526 20.1827 34.0747 20.3135 34.3262 20.5388C34.5778 20.764 34.7434 21.0697 34.7946 21.4035L39.5344 49.8791L43.5705 35.7997C43.6545 35.5032 43.8322 35.2418 44.077 35.0545C44.3218 34.8673 44.6206 34.7643 44.9288 34.7608H44.9574C45.2626 34.7609 45.56 34.8574 45.8072 35.0365C46.0544 35.2155 46.2387 35.4681 46.3339 35.7581L48.9077 43.5004H52.4347C52.6854 42.7385 53.1418 42.0607 53.7535 41.5419C54.3651 41.023 55.1082 40.6832 55.9007 40.56C56.6933 40.4368 57.5044 40.535 58.2447 40.8437C58.985 41.1524 59.6256 41.6596 60.0958 42.3094C60.566 42.9592 60.8475 43.7263 60.9093 44.5259C60.9711 45.3256 60.8107 46.1268 60.4459 46.8411C60.0811 47.5554 59.5261 48.155 58.842 48.5738C58.1579 48.9925 57.3715 49.2142 56.5694 49.2142L56.5616 49.2038Z" fill="#3F7CA2"/>
</svg>
